<svg id="Layer_1" enable-background="new 0 0 512 512" viewBox="0 0 512 512" xmlns="http://www.w3.org/2000/svg"><g clip-rule="evenodd" fill-rule="evenodd"><g><g><path d="m143.017 258.206 225.965-.001c6.17 0 10.738-5.591 9.506-11.637-11.617-57.018-62.04-99.923-122.488-99.923-60.449 0-110.871 42.906-122.488 99.924-1.233 6.046 3.336 11.637 9.505 11.637z" fill="#ffe177"/><path d="m346.889 258.205h22.093c6.17 0 10.738-5.591 9.506-11.637-11.617-57.018-62.04-99.923-122.488-99.923-3.723 0-7.407.164-11.047.483 55.464 4.857 100.54 45.934 111.441 99.44 1.233 6.047-3.335 11.637-9.505 11.637z" fill="#ffd064"/><ellipse cx="256" cy="73.439" fill="#f6dccd" rx="63.205" ry="63.205" transform="matrix(.707 -.707 .707 .707 23.052 202.529)"/><path d="m256 10.234c34.907 0 63.205 28.298 63.205 63.205s-28.298 63.205-63.205 63.205c-2.989 0-5.928-.213-8.806-.613 30.738-4.286 54.399-30.673 54.399-62.591s-23.661-58.306-54.399-62.591c2.878-.402 5.817-.615 8.806-.615z" fill="#f1cbbc"/></g><g><path d="m24.279 295.741h192.703c5.262 0 9.157-4.768 8.106-9.924-9.907-48.625-52.908-85.215-104.458-85.215-51.551 0-94.551 36.59-104.458 85.215-1.05 5.155 2.846 9.924 8.107 9.924z" fill="#8ac9fe"/><path d="m198.141 295.74h18.841c5.262 0 9.157-4.768 8.107-9.924-9.907-48.625-52.908-85.215-104.458-85.215-3.175 0-6.317.14-9.42.412 47.3 4.142 85.74 39.172 95.037 84.802 1.05 5.157-2.845 9.925-8.107 9.925z" fill="#60b7ff"/><circle cx="120.631" cy="136.699" fill="#f6dccd" r="53.901"/><path d="m120.631 82.798c29.769 0 53.901 24.132 53.901 53.901s-24.132 53.901-53.901 53.901c-2.549 0-5.056-.181-7.51-.523 26.213-3.655 46.392-26.158 46.392-53.378s-20.179-49.723-46.392-53.378c2.454-.342 4.961-.523 7.51-.523z" fill="#f1cbbc"/></g><g><path d="m295.017 295.741h192.703c5.262 0 9.157-4.768 8.106-9.924-9.907-48.625-52.908-85.215-104.457-85.215-51.551 0-94.551 36.59-104.458 85.215-1.051 5.155 2.845 9.924 8.106 9.924z" fill="#8ac9fe"/><path d="m468.879 295.74h18.841c5.262 0 9.157-4.768 8.107-9.924-9.907-48.625-52.908-85.215-104.457-85.215-3.175 0-6.317.14-9.42.412 47.299 4.142 85.74 39.172 95.037 84.802 1.049 5.157-2.846 9.925-8.108 9.925z" fill="#60b7ff"/><ellipse cx="391.369" cy="136.699" fill="#f6dccd" rx="53.901" ry="53.901" transform="matrix(.099 -.995 .995 .099 216.771 512.694)"/><path d="m391.369 82.798c29.769 0 53.901 24.132 53.901 53.901s-24.133 53.901-53.901 53.901c-2.549 0-5.055-.181-7.51-.523 26.213-3.655 46.392-26.158 46.392-53.378s-20.179-49.723-46.392-53.378c2.455-.342 4.961-.523 7.51-.523z" fill="#f1cbbc"/></g><g><path d="m317.842 372.582-60.95 24.724 48.01 103.122c.373.801 1.109 1.295 1.993 1.335.883.04 1.661-.384 2.105-1.149l17.888-30.783 35.071 6.128c.871.152 1.697-.17 2.234-.871.538-.702.635-1.583.261-2.384z" fill="#fe646f"/><path d="m317.843 372.582-5.711 2.316 46.292 99.431c.16.343.233.7.223 1.051l3.313.579c.871.152 1.697-.169 2.234-.871.538-.702.634-1.583.261-2.384zm-13.332 127.005 17.759-30.562 4.618.807-17.887 30.782c-.444.764-1.222 1.189-2.105 1.149s-1.62-.534-1.993-1.335z" fill="#fd4755"/><path d="m194.158 372.582 60.95 24.724-48.01 103.122c-.373.801-1.11 1.295-1.993 1.335s-1.661-.384-2.105-1.149l-17.888-30.783-35.071 6.128c-.871.152-1.697-.17-2.235-.871-.538-.702-.634-1.583-.261-2.384z" fill="#fe646f"/><path d="m194.158 372.582 60.95 24.723-48.01 103.122c-.373.801-1.109 1.295-1.992 1.335s-1.661-.385-2.106-1.149l-1.417-2.438 47.784-102.636-55.429-22.484zm-9.047 97.25-35.071 6.127c-.871.152-1.697-.169-2.235-.871-.327-.427-.492-.921-.485-1.423l36.33-6.347z" fill="#fd4755"/><path d="m271.572 202.289 15.655 11.719c4.282 3.205 8.789 4.845 14.129 5.142l19.525 1.086c11.691.65 21.187 8.618 23.858 20.018l4.46 19.04c1.22 5.207 3.618 9.36 7.517 13.021l14.259 13.383c8.538 8.013 10.69 20.22 5.408 30.67l-8.822 17.453c-2.413 4.773-3.245 9.496-2.611 14.806l2.321 19.418c1.39 11.626-4.808 22.361-15.572 26.971l-17.976 7.699c-4.916 2.105-8.59 5.188-11.518 9.664l-10.703 16.366c-6.409 9.8-18.057 14.039-29.265 10.652l-18.719-5.657c-5.119-1.547-9.915-1.547-15.035 0l-18.719 5.657c-11.209 3.387-22.856-.852-29.265-10.652l-10.704-16.366c-2.927-4.476-6.601-7.559-11.518-9.664l-17.976-7.699c-10.764-4.61-16.961-15.344-15.572-26.971l2.321-19.418c.635-5.31-.198-10.033-2.611-14.806l-8.822-17.453c-5.282-10.45-3.13-22.657 5.408-30.67l14.259-13.383c3.9-3.66 6.298-7.813 7.518-13.021l4.46-19.04c2.671-11.401 12.166-19.368 23.857-20.018l19.525-1.086c5.34-.297 9.847-1.937 14.128-5.142l15.656-11.719c9.374-7.017 21.769-7.017 31.144 0z" fill="#837683"/><path d="m271.572 202.289 15.656 11.719c4.282 3.205 8.788 4.845 14.128 5.142l19.525 1.086c11.691.65 21.187 8.618 23.858 20.018l4.46 19.04c1.22 5.207 3.618 9.36 7.517 13.02l14.259 13.383c8.538 8.013 10.69 20.22 5.408 30.67l-8.822 17.452c-2.413 4.773-3.245 9.496-2.611 14.807l2.321 19.418c1.389 11.627-4.809 22.361-15.572 26.971l-17.976 7.699c-4.916 2.106-8.59 5.189-11.517 9.664l-10.704 16.366c-6.046 9.243-16.752 13.539-27.354 11.154 6.331-1.457 12.004-5.32 15.819-11.154l10.704-16.366c2.927-4.476 6.601-7.559 11.517-9.664l17.976-7.699c10.764-4.61 16.962-15.344 15.572-26.971l-2.321-19.418c-.635-5.31.198-10.033 2.611-14.807l8.822-17.452c5.282-10.45 3.13-22.657-5.408-30.67l-14.259-13.383c-3.9-3.66-6.298-7.813-7.518-13.02l-4.46-19.04c-2.671-11.401-12.166-19.368-23.857-20.018l-19.525-1.086c-5.34-.297-9.847-1.937-14.129-5.142l-15.656-11.719c-3.022-2.262-6.357-3.793-9.804-4.597 7.247-1.69 14.987-.158 21.34 4.597zm-21.34 230.979c-.58.137-1.162.294-1.75.471l-18.719 5.657c-4.536 1.371-9.143 1.492-13.446.502.638-.143 1.275-.31 1.911-.502l18.719-5.657c4.533-1.369 8.811-1.526 13.285-.471z" fill="#685e68"/><ellipse cx="256" cy="318.788" fill="#eceff1" rx="68.327" ry="68.327" transform="matrix(.707 -.707 .707 .707 -150.436 274.39)"/><path d="m256 250.46c1.943 0 3.866.086 5.768.245-35.037 2.929-62.56 32.29-62.56 68.083s27.523 65.154 62.56 68.083c-1.902.159-3.825.245-5.768.245-37.736 0-68.327-30.591-68.327-68.327-.001-37.738 30.591-68.329 68.327-68.329z" fill="#d1d1d6"/></g><g><path d="m260.88 283.433 6.046 18.731c.696 2.157 2.623 3.557 4.889 3.553l19.683-.038c2.263-.004 4.187 1.391 4.887 3.543.699 2.152-.038 4.412-1.871 5.739l-15.946 11.539c-1.836 1.329-2.572 3.594-1.867 5.748l6.118 18.708c.703 2.151-.029 4.412-1.859 5.742-1.831 1.33-4.208 1.327-6.036-.006l-15.902-11.6c-1.831-1.335-4.213-1.335-6.044 0l-15.902 11.6c-1.828 1.333-4.205 1.336-6.036.006s-2.563-3.591-1.86-5.742l6.118-18.708c.704-2.154-.032-4.42-1.867-5.748l-15.946-11.539c-1.833-1.327-2.57-3.587-1.871-5.739s2.623-3.547 4.886-3.543l19.683.038c2.266.004 4.193-1.396 4.89-3.552l6.046-18.732c.695-2.153 2.617-3.552 4.88-3.552s4.185 1.399 4.881 3.552z" fill="#ffe177"/><path d="m260.88 283.433 6.046 18.731c.662 2.052 2.44 3.419 4.563 3.544l-4.773.009c-2.266.004-4.193-1.396-4.89-3.553l-6.046-18.731c-.41-1.27-1.247-2.278-2.329-2.891.752-.426 1.622-.661 2.55-.661 2.261 0 4.183 1.399 4.879 3.552zm25.845 22.255c2.12.124 3.895 1.486 4.56 3.534.699 2.152-.038 4.412-1.871 5.739l-15.946 11.539c-1.836 1.329-2.572 3.594-1.867 5.748l6.118 18.708c.703 2.151-.029 4.412-1.859 5.742-.151.11-.306.21-.464.302 1.752 1.017 3.887.916 5.564-.302 1.83-1.33 2.563-3.591 1.859-5.742l-6.118-18.708c-.704-2.154.031-4.42 1.867-5.748l15.946-11.539c1.833-1.327 2.57-3.587 1.871-5.739-.7-2.152-2.624-3.547-4.887-3.543zm-33.275 39.097c-.161.093-.318.196-.472.308l-15.902 11.6c-1.677 1.223-3.816 1.326-5.572.308.161-.093.318-.196.472-.308l15.902-11.6c1.677-1.224 3.817-1.326 5.572-.308zm-33.275-39.097c.108-.006.217-.009.326-.009l14.91.029c-.108.006-.217.009-.327.009z" fill="#ffd064"/></g></g><path d="m273.883 314.251c-4.64 3.36-6.56 9.271-4.781 14.716l3.351 10.255-8.711-6.363c-2.32-1.689-5.026-2.532-7.737-2.532s-5.422.842-7.742 2.532l-8.711 6.363 3.351-10.255c1.779-5.445-.141-11.356-4.777-14.716l-8.744-6.32 10.791.019h.019c5.723 0 10.739-3.647 12.5-9.088l3.313-10.274 3.308 10.259c1.76 5.454 6.782 9.102 12.5 9.102h.019l10.791-.019zm17.597-22.34-17.578.038-5.407-16.74c-1.751-5.44-6.772-9.097-12.49-9.097-5.723.009-10.744 3.657-12.495 9.097l-5.407 16.74-17.592-.038s-.009 0-.019 0c-5.699 0-10.721 3.638-12.476 9.069-1.774 5.44.155 11.342 4.786 14.693l14.241 10.316-5.459 16.712c-1.779 5.431.127 11.337 4.758 14.712 2.311 1.666 5.012 2.508 7.723 2.508 2.706 0 5.417-.842 7.728-2.532l14.213-10.368 14.208 10.368c4.622 3.37 10.829 3.37 15.451.009 4.631-3.36 6.542-9.257 4.758-14.697l-5.459-16.712 14.241-10.316c4.631-3.351 6.56-9.253 4.791-14.693-1.76-5.431-6.782-9.069-12.481-9.069-.012 0-.021 0-.035 0zm-35.476 81.436c33.259 0 60.329-27.065 60.329-60.329 0-33.268-27.07-60.329-60.329-60.329s-60.333 27.061-60.333 60.329c0 33.263 27.074 60.329 60.333 60.329zm0-136.659c-42.092 0-76.33 34.243-76.33 76.33 0 42.092 34.238 76.33 76.33 76.33 42.087 0 76.33-34.238 76.33-76.33 0-42.087-34.242-76.33-76.33-76.33zm125.91 43.984c-1.511-2.363-3.332-4.574-5.459-6.575l-14.264-13.389c-2.739-2.57-4.339-5.351-5.196-9.008l-4.461-19.041c-1.572-6.697-5.012-12.509-9.699-16.952 14.688-8.509 31.249-12.947 48.525-12.961h.014.009c46.799.014 86.307 32.934 95.296 77.925h-104.765zm-12.674 26.317c3.69-7.299 2.221-15.629-3.737-21.229l-14.26-13.38c-5.04-4.73-8.25-10.297-9.831-17.032l-4.457-19.037c-1.873-7.963-8.353-13.403-16.514-13.85l-19.531-1.092c-6.899-.381-12.937-2.579-18.477-6.73l-15.653-11.709c-3.28-2.452-7.026-3.68-10.777-3.68s-7.502 1.228-10.782 3.68l-15.648 11.709c-5.544 4.151-11.582 6.349-18.481 6.73l-19.531 1.092c-8.161.447-14.641 5.887-16.509 13.85l-4.461 19.037c-1.567 6.735-4.791 12.302-9.827 17.032l-14.26 13.38c-5.963 5.6-7.431 13.93-3.742 21.229l8.819 17.46c3.12 6.161 4.231 12.5 3.407 19.361l-2.315 19.418c-.974 8.118 3.257 15.441 10.777 18.669l17.978 7.69c6.353 2.72 11.281 6.862 15.064 12.641l10.697 16.373c4.48 6.848 12.429 9.737 20.26 7.37l18.721-5.662c6.608-1.991 13.05-1.991 19.658 0l18.721 5.662c7.831 2.367 15.78-.532 20.26-7.37l10.702-16.373c3.779-5.779 8.707-9.921 15.06-12.641l17.978-7.69c7.521-3.228 11.752-10.551 10.782-18.669l-2.32-19.418c-.824-6.862.287-13.201 3.407-19.361zm-40.967 149.192c-3.299-.569-6.612.969-8.302 3.868l-12.41 21.361-17.987-38.652c.108 0 .217.009.329.009 11.22 0 21.86-5.577 28.298-15.408l10.702-16.368c.141-.202.278-.391.41-.593l23.3 50.041zm-123.83 25.229-12.41-21.361c-1.68-2.899-5.003-4.438-8.292-3.868l-24.35 4.259 23.301-50.041c.141.202.282.391.414.593l10.697 16.368c6.499 9.93 17.291 15.521 28.633 15.408zm-68.889-207.312c-2.132 2-3.948 4.212-5.464 6.575h-104.779c9.003-44.992 48.512-77.911 95.31-77.925h.009.014c17.276.014 33.837 4.452 48.525 12.961-4.687 4.442-8.128 10.255-9.699 16.952l-4.457 19.041c-.852 3.657-2.461 6.438-5.2 9.008zm-60.131-132.546c0-24.933 20.279-45.212 45.208-45.212 24.934 0 45.212 20.279 45.212 45.212 0 24.914-20.27 45.198-45.198 45.198h-.014-.009c-24.92.001-45.199-20.283-45.199-45.198zm180.581 7.229c-.014 0-.024 0-.043 0-36.831.01-70.696 17.178-92.439 46.37 7.69 3.158 15.051 7.168 21.969 12.02 1.689-.353 3.421-.588 5.181-.692l19.531-1.092c3.751-.198 6.768-1.299 9.78-3.548l15.648-11.718c12.189-9.12 28.562-9.12 40.741 0l15.648 11.718c3.012 2.25 6.033 3.351 9.78 3.548l19.531 1.092c1.76.104 3.492.339 5.181.692 6.923-4.852 14.279-8.862 21.969-12.02-21.738-29.193-55.599-46.361-92.439-46.37-.019 0-.028 0-.038 0zm-54.394-70.391c0-29.988 24.402-54.389 54.394-54.389 29.988 0 54.389 24.402 54.389 54.389 0 29.978-24.383 54.371-54.352 54.39-.019 0-.028 0-.038 0-.014 0-.024 0-.043 0-29.967-.019-54.35-24.411-54.35-54.39zm189.763 17.95c24.929 0 45.208 20.279 45.208 45.212 0 24.914-20.27 45.198-45.198 45.198h-.009-.014c-24.914 0-45.198-20.284-45.198-45.198-.001-24.933 20.283-45.212 45.211-45.212zm112.577 191.481c-4.895-45.702-36.332-82.471-78.09-95.743 16.123-11.036 26.745-29.569 26.745-50.526 0-33.762-27.484-61.214-61.232-61.214-33.753 0-61.209 27.451-61.209 61.214 0 5.327.687 10.495 1.977 15.436-11.798-8.41-24.929-14.796-38.911-18.9 19.903-12.448 33.16-34.548 33.16-59.698 0-38.812-31.569-70.39-70.386-70.39-38.812 0-70.391 31.579-70.391 70.391 0 25.15 13.267 47.25 33.16 59.698-13.982 4.104-27.112 10.49-38.911 18.9 1.289-4.941 1.981-10.109 1.981-15.436 0-33.762-27.461-61.214-61.214-61.214-33.748 0-61.209 27.451-61.209 61.214 0 20.957 10.598 39.49 26.722 50.526-41.749 13.262-73.2 50.041-78.09 95.743-.249 2.25.48 4.509 2 6.198 1.52 1.68 3.68 2.649 5.949 2.649h108.84c-.372 5.892.8 11.93 3.643 17.54l8.819 17.451c1.699 3.36 2.25 6.518 1.807 10.25l-2.32 19.423c-1.807 15.107 6.372 29.277 20.359 35.268l11.93 5.111-28.788 61.849c-1.619 3.502-1.181 7.568 1.167 10.631 2.344 3.059 6.16 4.537 9.963 3.878l29.578-5.158 15.093 25.959c1.859 3.2 5.238 5.13 8.89 5.13.16 0 .32 0 .489-.009 3.85-.179 7.248-2.461 8.881-5.953l27.847-59.807 8.603-2.602c3.6-1.092 6.81-1.092 10.396 0l8.612 2.602 27.842 59.807c1.629 3.492 5.031 5.774 8.871 5.953.167.008.327.008.487.008 3.675 0 7.05-1.93 8.913-5.13l15.079-25.959 29.578 5.158c3.803.673 7.61-.819 9.963-3.878 2.348-3.064 2.8-7.13 1.167-10.631l-28.788-61.849 11.93-5.111c13.987-5.991 22.171-20.161 20.359-35.268l-2.32-19.423c-.438-3.732.122-6.89 1.812-10.25l8.819-17.451c2.838-5.61 4.01-11.648 3.638-17.54h108.836c2.259 0 4.424-.969 5.977-2.659 1.507-1.679 2.213-3.938 1.977-6.188z" fill="#242222"/></g></svg>