<svg id="Layer_1" enable-background="new 0 0 512 512" viewBox="0 0 512 512" xmlns="http://www.w3.org/2000/svg"><g clip-rule="evenodd" fill-rule="evenodd"><g><path d="m347.056 290.102-96.003 38.943 75.621 162.429c.588 1.263 1.748 2.039 3.139 2.103 1.391.063 2.617-.605 3.316-1.809l28.175-48.486 55.242 9.652c1.372.24 2.673-.267 3.52-1.373.847-1.105.999-2.493.411-3.756z" fill="#fe646f"/><path d="m241.703 326.392 6.538 2.652-75.622 162.43c-.588 1.263-1.748 2.04-3.139 2.102-1.39.064-2.616-.605-3.316-1.809l-3.413-5.875c.637.444 1.409.668 2.241.63 1.391-.063 2.551-.84 3.139-2.102zm-104.067 116.951-54.888 9.59c-1.372.239-2.673-.267-3.52-1.373-.847-1.105-.999-2.493-.412-3.756l1.025-2.202 53.659-9.375z" fill="#fd4755"/><path d="m152.238 290.102 96.003 38.943-75.621 162.429c-.588 1.263-1.748 2.039-3.139 2.103-1.391.063-2.617-.605-3.316-1.809l-28.175-48.486-55.242 9.652c-1.372.24-2.673-.267-3.52-1.373-.847-1.105-.999-2.493-.412-3.756z" fill="#fe646f"/><path d="m347.056 290.102-7.787 3.159 71.821 154.265c.588 1.262.435 2.65-.411 3.756-.153.199-.32.379-.501.539l6.368 1.112c1.372.239 2.673-.267 3.52-1.373.847-1.105.999-2.493.411-3.756zm-21.682 198.578 27.262-46.914 8.669 1.515-28.175 48.486c-.7 1.204-1.925 1.873-3.316 1.809-1.391-.063-2.551-.84-3.139-2.102z" fill="#fd4755"/><path d="m274.174 21.87 24.659 18.458c6.744 5.048 13.843 7.632 22.255 8.099l30.754 1.711c18.415 1.024 33.372 13.574 37.578 31.532l7.025 29.99c1.921 8.202 5.698 14.744 11.841 20.509l22.46 21.08c13.448 12.622 16.838 31.849 8.518 48.309l-13.896 27.49c-3.8 7.518-5.112 14.958-4.112 23.322l3.656 30.585c2.189 18.313-7.573 35.221-24.528 42.482l-28.315 12.126c-7.744 3.317-13.531 8.172-18.141 15.223l-16.859 25.779c-10.095 15.436-28.441 22.113-46.096 16.777l-29.485-8.911c-8.064-2.437-15.618-2.437-23.682 0l-29.485 8.911c-17.655 5.335-36.001-1.342-46.096-16.777l-16.859-25.779c-4.611-7.05-10.397-11.906-18.141-15.222l-28.315-12.127c-16.954-7.261-26.716-24.169-24.527-42.482l3.656-30.585c.999-8.365-.312-15.804-4.113-23.322l-13.896-27.49c-8.32-16.46-4.93-35.688 8.518-48.309l22.46-21.08c6.143-5.765 9.919-12.307 11.841-20.509l7.025-29.99c4.207-17.958 19.163-30.508 37.578-31.532l30.754-1.711c8.411-.468 15.51-3.052 22.254-8.099l24.659-18.458c14.766-11.052 34.29-11.052 49.055 0z" fill="#ffe177"/><path d="m274.174 21.87 24.659 18.458c6.744 5.048 13.843 7.632 22.255 8.1l30.754 1.711c18.415 1.024 33.372 13.574 37.578 31.532l7.026 29.99c1.921 8.202 5.698 14.744 11.841 20.509l22.46 21.08c13.448 12.622 16.838 31.849 8.518 48.31l-13.896 27.49c-3.8 7.518-5.112 14.957-4.113 23.322l3.656 30.585c2.189 18.314-7.573 35.222-24.527 42.483l-28.315 12.126c-7.744 3.316-13.531 8.172-18.141 15.223l-16.859 25.779c-9.401 14.375-25.96 21.152-42.452 17.706 10.221-2.182 19.401-8.327 25.536-17.706l16.859-25.779c4.611-7.05 10.397-11.906 18.141-15.223l28.315-12.126c16.954-7.261 26.716-24.169 24.527-42.483l-3.656-30.585c-.999-8.365.312-15.804 4.112-23.322l13.896-27.49c8.32-16.46 4.93-35.688-8.518-48.31l-22.46-21.08c-6.143-5.765-9.919-12.307-11.841-20.509l-7.026-29.99c-4.207-17.957-19.163-30.507-37.578-31.532l-30.754-1.711c-8.412-.468-15.51-3.052-22.254-8.1l-24.66-18.458c-4.942-3.699-10.417-6.158-16.069-7.381 11.233-2.431 23.163.028 32.986 7.381zm-32.985 363.676c-6.821-1.503-13.373-1.208-20.299.885l-29.485 8.911c-1.212.366-2.428.673-3.644.928 6.6 1.409 13.633 1.166 20.56-.928l29.485-8.911c1.137-.343 2.263-.638 3.383-.885z" fill="#ffd064"/><circle cx="249.647" cy="205.369" fill="#eceff1" r="123.699"/><path d="m249.647 81.67c2.843 0 5.663.105 8.458.293-64.371 4.348-115.241 57.932-115.241 123.406s50.87 119.058 115.241 123.406c-2.796.189-5.615.293-8.458.293-68.318 0-123.699-55.382-123.699-123.699s55.382-123.699 123.699-123.699z" fill="#d1d1d6"/><path d="m254.809 217.626 166.518-190.599c7.997-8.076 21.042-8.099 29.094-.091 8.052 8.006 8.077 21.016.089 29.077-27.393 27.647-153.566 177.849-181.087 205.37-8.045 8.046-21.096 8.045-29.142 0l-57.126-57.126c-8.045-8.045-8.045-21.096 0-29.142s21.097-8.046 29.142 0z" fill="#8ac9fe"/></g><path d="m444.816 52.779c-13.659 13.792-50.251 56.131-88.988 100.961-38.493 44.541-78.289 90.6-92.071 104.381-2.382 2.379-5.54 3.69-8.91 3.69s-6.528-1.311-8.91-3.69l-57.127-57.12c-2.382-2.381-3.69-5.551-3.69-8.921 0-3.369 1.309-6.529 3.69-8.91 2.457-2.458 5.676-3.688 8.91-3.688 3.224 0 6.458 1.23 8.915 3.688l42.513 42.511c1.558 1.57 3.709 2.411 5.921 2.341 2.217-.081 4.297-1.07 5.757-2.731l129.541-148.271c.009-.02.028-.04.038-.049l36.751-42.07c2.339-2.282 5.418-3.543 8.698-3.553h.052c3.342 0 6.491 1.294 8.872 3.663 4.9 4.869 4.919 12.848.038 17.768zm-267.323 159.531c-5.408-5.4-8.378-12.589-8.378-20.23 0-7.64 2.97-14.82 8.378-20.219 11.155-11.161 29.3-11.161 40.456-.01l36.46 36.46 74.289-85.02c-21.491-20.19-49.29-31.22-79.061-31.22-63.788 0-115.7 51.899-115.7 115.699 0 63.79 51.912 115.7 115.7 115.7 63.802 0 115.7-51.91 115.7-115.7 0-11.849-1.76-23.4-5.229-34.509-36.12 41.799-71.799 82.939-85.03 96.179-5.413 5.4-12.591 8.371-20.23 8.371s-14.831-2.971-20.23-8.371zm225.314-71.908c-2.763-2.591-5.112-5.351-7.121-8.291-7.691 8.879-15.617 18.059-23.549 27.23 6.1 15.4 9.197 31.659 9.197 48.429 0 72.62-59.081 131.701-131.699 131.701-72.622 0-131.699-59.081-131.699-131.701s59.076-131.699 131.699-131.699c33.701 0 65.181 12.42 89.591 35.158l34.887-39.939c-5.69-6.411-13.706-10.271-22.73-10.771l-30.75-1.71c-9.936-.55-18.639-3.72-26.608-9.681l-24.65-18.459c-11.993-8.971-27.479-8.971-39.472 0l-24.658 18.461c-7.969 5.961-16.667 9.131-26.599 9.681l-30.76 1.71c-14.949.829-26.82 10.791-30.232 25.369l-7.027 29.99c-2.274 9.691-6.9 17.711-14.149 24.522l-22.461 21.079c-10.92 10.248-13.612 25.5-6.863 38.869l13.899 27.48c4.49 8.889 6.1 18.011 4.924 27.89l-3.662 30.58c-1.779 14.871 5.973 28.28 19.731 34.181l28.321 12.129c9.15 3.911 16.239 9.872 21.689 18.191l16.86 25.78c8.19 12.54 22.748 17.831 37.076 13.499l29.493-8.908c9.517-2.881 18.78-2.881 28.312 0l29.474 8.908c14.342 4.332 28.891-.96 37.095-13.499l16.86-25.78c5.437-8.319 12.539-14.269 21.675-18.191l28.321-12.129c13.772-5.901 21.51-19.31 19.731-34.181l-3.648-30.58c-1.181-9.879.428-19.001 4.909-27.879l13.899-27.491c6.759-13.368 4.072-28.62-6.849-38.869zm-40.131 297.398c-3.309-.57-6.608.96-8.298 3.86l-23.981 41.27-35.41-76.06c2.678.441 5.361.66 8.021.66 16.159 0 31.489-8.029 40.747-22.19l16.86-25.779c1.713-2.62 3.591-4.81 5.709-6.7l43.369 93.15zm-193.801 45.13-23.977-41.27c-1.68-2.9-4.994-4.44-8.293-3.86l-47.017 8.21 43.36-93.15c2.118 1.89 4.001 4.08 5.719 6.7l16.851 25.779c10.788 16.491 29.799 24.67 48.782 21.531zm287.181-459.268c-5.389-5.361-12.549-8.312-20.15-8.312-.037 0-.08 0-.108 0-7.644.033-14.803 3.031-20.159 8.44-.122.122-.231.24-.344.372l-30.618 35.05c-8.421-8.639-19.943-13.969-32.397-14.661l-30.755-1.71c-6.877-.39-12.398-2.4-17.91-6.52l-24.659-18.462c-17.528-13.118-41.1-13.118-58.638 0l-24.661 18.461c-5.512 4.12-11.033 6.13-17.9 6.52l-30.76 1.71c-21.873 1.21-39.924 16.36-44.922 37.69l-7.027 29.99c-1.572 6.7-4.5 11.791-9.522 16.5l-22.461 21.081c-15.975 14.989-20.07 38.199-10.176 57.749l13.89 27.49c3.107 6.15 4.128 11.931 3.309 18.77l-3.662 30.58c-2.598 21.749 9.188 42.159 29.328 50.79l23.163 9.92-47.362 101.711c-1.84 3.949-1.327 8.55 1.313 11.999 2.645 3.46 6.957 5.141 11.245 4.391l49.752-8.691 25.37 43.66c2.099 3.611 5.921 5.801 10.073 5.801.179 0 .348-.009.527-.02 4.349-.189 8.19-2.769 10.03-6.709l44.729-96.07 15.519-4.69c6.58-2 12.464-2 19.054 0l15.519 4.69 44.73 96.059c1.831 3.951 5.671 6.531 10.03 6.731.179 0 .348.009.532.009 4.147 0 7.969-2.19 10.058-5.801l25.379-43.66 49.742 8.691c4.288.75 8.599-.93 11.25-4.391 2.65-3.449 3.149-8.05 1.318-11.999l-47.361-101.711 23.163-9.92c20.136-8.631 31.917-29.041 29.319-50.79l-3.662-30.58c-.81-6.84.212-12.62 3.313-18.77l13.9-27.49c9.88-19.55 5.789-42.761-10.181-57.749l-22.461-21.081c-3.059-2.87-5.338-5.91-7.018-9.339 22.118-25.441 40.908-46.73 49.446-55.35 11.084-11.18 11.023-29.291-.127-40.379z" fill="#242222"/></g></svg>