<svg clip-rule="evenodd" fill-rule="evenodd" stroke-linejoin="round" stroke-miterlimit="2" viewBox="0 0 510 510" xmlns="http://www.w3.org/2000/svg"><g><g><g><g><path d="m339.826 424.248 83.246-83.246 68.058 68.057c5.13 5.131 5.13 13.503 0 18.633l-64.613 64.613c-5.132 5.132-13.504 5.132-18.635 0z" fill="#ffddce"/><path d="m217.68 302.172 113.737-113.738c9.161-9.161 24.154-9.161 33.315.001 9.162 9.161 9.162 24.153 0 33.314l-10.087 10.089c9.162-9.162 24.152-9.162 33.315 0 9.161 9.16 9.161 24.152 0 33.314l-10.088 10.088c9.162-9.162 24.153-9.162 33.315 0s9.162 24.153 0 33.316l-10.089 10.086c9.163-9.161 24.154-9.161 33.317.001 9.161 9.161 9.161 24.153 0 33.314l-3.828 3.826-79.476 79.75c-5.552 5.571-12.319 8.384-20.185 8.392-7.866.006-14.637-2.795-20.2-8.357l-4.883-4.883-56.771 56.772c-5.131 5.131-13.502 5.131-18.634 0l-64.612-64.614c-5.131-5.13-5.131-13.501 0-18.633l56.772-56.771-4.918-4.917c-11.112-11.113-11.112-29.239 0-40.35z" fill="#f6dccd"/><g fill="#f1cbbc"><path d="m267.819 198.957c-7.934 7.936-7.934 20.919 0 28.854l32.443 32.442c7.934 7.935 20.918 7.935 28.852 0l.002-.001c7.934-7.934 7.934-20.918 0-28.852l-32.443-32.443c-7.935-7.934-20.918-7.934-28.854 0z"/><path d="m247.718 236.564c-7.934 7.934-7.934 20.919 0 28.853l23.265 23.266c7.934 7.934 20.919 7.934 28.854 0 7.935-7.936 7.935-20.919 0-28.854l-23.265-23.265c-7.935-7.936-20.919-7.935-28.854 0z"/><path d="m225.887 272.44c-7.934 7.934-7.934 20.919 0 28.853l14.089 14.089c7.935 7.936 20.919 7.936 28.854.002v-.002c7.935-7.934 7.935-20.918 0-28.852l-14.089-14.09c-7.934-7.935-20.919-7.935-28.854 0z"/><path d="m205.456 309.717c-7.935 7.935-7.935 20.92 0 28.854l4.913 4.914c7.935 7.933 20.919 7.934 28.854 0 7.935-7.936 7.935-20.919 0-28.855l-4.914-4.913c-7.934-7.935-20.919-7.935-28.853 0z"/></g></g></g><g><path d="m129.289 13.846 114.267 48.98v92.398c0 64.297-46.796 119.858-110.103 130.894l-4.164.728-4.164-.728c-63.307-11.036-110.103-66.597-110.103-130.894v-92.398z" fill="#6cf5c2"/><path d="m125.154 15.619 4.135-1.773 114.267 48.98v92.398c0 64.297-46.796 119.858-110.103 130.894l-4.164.728-4.135-.723.029-.005c63.307-11.036 110.102-66.597 110.102-130.894v-92.398z" fill="#00e499"/><path d="m129.289 46.898-83.894 35.934v72.392c0 49.184 35.642 91.845 83.894 100.784 48.281-8.939 83.924-51.6 83.924-100.784v-72.392z" fill="#eceff1"/><path d="m133.425 48.669-79.76 34.163v72.392c0 47.768 33.621 89.384 79.761 99.929-1.368.313-2.747.598-4.137.855-48.252-8.939-83.894-51.6-83.894-100.784v-72.392l83.894-35.934z" fill="#d1d1d6"/></g><path d="m79.718 158.836c-4.835-4.805-4.835-12.611 0-17.416 4.806-4.806 12.582-4.806 17.417 0l18.844 18.844 45.523-45.96c4.776-4.806 12.553-4.835 17.358-.058 4.835 4.805 4.835 12.582.059 17.388-23.504 23.737-30.582 31.134-54.231 54.755-4.806 4.835-12.612 4.835-17.417 0z" fill="#8ac9fe" fill-rule="nonzero"/></g><path d="m349.807 441.731c-5.577 3.585-11.912 5.392-18.953 5.398-9.382.007-17.517-3.184-24.28-9.522l-58.355 58.355c-3.124 3.124-8.189 3.124-11.313 0l-80.612-80.611c-1.5-1.5-2.343-3.535-2.343-5.657 0-2.121.843-4.156 2.343-5.656l54.456-54.455c-.796-.636-1.565-1.322-2.301-2.058l-4.756-4.758c-10.795-10.794-10.796-28.459 0-39.254 3.763-3.763 8.36-6.214 13.211-7.353-3.356-9.738-1.165-21.006 6.573-28.743 3.988-3.989 8.913-6.504 14.084-7.545-2.627-9.365-.275-19.865 7.056-27.197 3.713-3.713 8.239-6.149 13.02-7.308-3.537-9.819-1.389-21.272 6.445-29.107 10.796-10.796 28.459-10.795 39.254-.001l6.071 6.071 16.259-16.26c11.982-11.984 31.59-11.984 43.574 0 9.047 9.045 11.264 22.437 6.652 33.614 5.814 1.13 11.36 3.935 15.84 8.416 9.046 9.045 11.263 22.436 6.652 33.612 5.814 1.13 11.36 3.935 15.84 8.416 9.046 9.045 11.263 22.436 6.652 33.612 5.814 1.131 11.36 3.936 15.84 8.416 10.097 10.097 11.687 25.605 4.77 37.405l59.171 59.172c3.124 3.124 3.124 8.189 0 11.313l-80.61 80.611c-3.124 3.124-8.19 3.124-11.314 0zm-122.458-86.12c-11.236 11.236-54.084 54.083-54.084 54.083s69.297 69.297 69.297 69.297l58.34-58.339c3.124-3.124 8.189-3.124 11.314 0l4.728 4.728c3.826 3.826 8.485 5.753 13.897 5.749 5.411-.005 10.066-1.94 13.885-5.772l.009-.01 76.952-77.216.01-.01 3.706-3.705c5.761-5.76 5.76-15.186-.001-20.946-5.761-5.761-15.186-5.761-20.946 0-3.125 3.124-8.19 3.124-11.314 0s-3.124-8.189 0-11.314l9.768-9.768c5.761-5.761 5.761-15.187 0-20.947-5.76-5.76-15.185-5.761-20.945 0-3.124 3.124-8.189 3.125-11.314.001-3.124-3.124-3.124-8.189 0-11.314l9.768-9.77c5.76-5.759 5.76-15.185 0-20.945-5.761-5.761-15.186-5.761-20.946 0-3.124 3.124-8.189 3.124-11.314 0-3.124-3.123-3.124-8.189-.001-11.313l9.769-9.77c5.76-5.761 5.761-15.186 0-20.946-5.761-5.761-15.187-5.762-20.946-.001l-16.261 16.261 14.031 14.031c10.795 10.794 10.795 28.459-.001 39.253-5.556 5.557-12.932 8.253-20.255 8.09-.047 7.052-2.745 14.09-8.095 19.44-5.994 5.995-14.107 8.66-21.986 7.997-.41 6.514-3.09 12.909-8.04 17.858-5.638 5.638-13.15 8.331-20.578 8.08-.122 6.949-2.819 13.86-8.092 19.132-5.581 5.581-12.999 8.276-20.355 8.086zm4.283-40.785c-4.571-4.572-12.054-4.571-16.626.001-4.573 4.572-4.572 12.055 0 16.627l4.757 4.757c1.656 1.657 3.695 2.713 5.84 3.17.173.027.345.059.517.098 3.627.604 7.488-.485 10.271-3.268 4.572-4.572 4.572-12.055 0-16.627zm17.283-38.001c-4.484-2.54-10.314-1.905-14.124 1.905-4.573 4.572-4.572 12.055 0 16.627l8.156 8.156 4.757 4.758.73.729c4.572 4.572 12.054 4.572 16.627 0 4.572-4.573 4.572-12.055 0-16.627l-13.644-13.643c-.691-.691-1.449-1.278-2.254-1.761-.083-.048-.165-.096-.248-.144zm23.502-32.975c-4.583-4.433-11.961-4.387-16.486.138-4.572 4.573-4.573 12.056 0 16.628l3.251 3.252 3.549 3.548 13.643 13.643 2.085 2.085c4.572 4.572 12.054 4.574 16.626.001 0 0 .001 0 .001-.001 4.572-4.572 4.572-12.054 0-16.626zm51.021-4.862-31.416-31.415c-4.572-4.572-12.054-4.572-16.626.001-4.573 4.572-4.573 12.055-.001 16.627l8.261 8.261c.072.07.144.141.215.213l22.527 22.528.412.412c4.572 4.572 12.054 4.573 16.626 0 4.573-4.572 4.574-12.055.002-16.627zm107.437 122.59-69.179 69.416 52.694 52.692 69.296-69.296zm-298.436-353.931 114.287 48.989c2.941 1.26 4.848 4.153 4.848 7.353v92.414c0 68.179-49.619 127.096-116.744 138.798l-4.165.728c-.912.159-1.844.159-2.756 0l-4.161-.727c-67.129-11.703-116.748-70.62-116.748-138.799v-92.414c0-3.2 1.907-6.093 4.848-7.353l114.287-48.989c2.013-.863 4.291-.863 6.304 0zm-3.152 16.057s-106.287 45.559-106.287 45.559v87.14c0 60.438 43.989 112.662 103.496 123.036l2.791.488 2.791-.488c59.507-10.374 103.496-62.598 103.496-123.036v-87.14zm3.149 16.999 83.939 35.94c2.943 1.26 4.851 4.153 4.851 7.355v72.405c0 53.029-38.426 99.029-90.482 108.668-.963.179-1.951.179-2.914 0-52.025-9.639-90.452-55.638-90.452-108.668v-72.405c0-3.201 1.907-6.094 4.85-7.354l83.909-35.941c2.012-.861 4.288-.861 6.299 0zm-3.148 16.057s-75.91 32.514-75.91 32.514v67.129c0 44.858 32.154 83.829 75.91 92.654 43.781-8.824 75.938-47.795 75.938-92.654v-67.128zm-55.212 108.928-.017-.017c-7.965-7.935-7.962-20.808.009-28.739 7.924-7.914 20.737-7.928 28.705-.009.005.006.011.012.017.018 0 0 13.16 13.16 13.16 13.16l39.866-40.249.01-.01c7.889-7.938 20.734-7.982 28.672-.092 7.981 7.932 7.977 20.768.103 28.69-23.517 23.75-30.598 31.152-54.26 54.785-7.938 7.966-20.816 7.96-28.729-.001zm11.297-11.331 27.552 27.553c.006.006.012.011.017.017 1.675 1.685 4.395 1.685 6.07 0 .006-.007.013-.014.02-.021 23.636-23.607 30.709-31 54.2-54.724l.01-.01c1.669-1.679 1.665-4.396-.023-6.074-1.673-1.663-4.38-1.65-6.044.022l-45.514 45.951c-1.498 1.512-3.537 2.365-5.665 2.37s-4.171-.838-5.676-2.343c0 0-18.831-18.831-18.839-18.839-1.7-1.676-4.423-1.689-6.108-.005-.006.006-.011.012-.017.017-1.685 1.675-1.685 4.395 0 6.069.006.006.011.012.017.017z"/></g></svg>